<?xml version="1.0" encoding="utf-8"?>
<!-- Generator: Adobe Illustrator 23.0.2, SVG Export Plug-In . SVG Version: 6.00 Build 0)  -->
<svg version="1.1" id="Laag_1" xmlns="http://www.w3.org/2000/svg" xmlns:xlink="http://www.w3.org/1999/xlink" x="0px" y="0px"
	 viewBox="0 0 546 270" style="enable-background:new 0 0 546 270;" xml:space="preserve">
<style type="text/css">
	.st0{opacity:0.8;fill:#C9C2B7;}
	.st1{fill:#FFFFFF;}
	.st2{font-family:'CenturyGothic-Bold';}
	.st3{font-size:12.4557px;}
	.st4{font-family:'Constantia-Bold';}
	.st5{font-size:21px;}
	.st6{font-family:'CenturyGothic';}
	.st7{font-size:11.3233px;}
	.st8{fill:#555953;}
	.st9{font-size:13px;}
</style>
<image style="overflow:visible;" width="1242" height="1537" xlink:href="Distinctive/img/model.jpg"  transform="matrix(0.2192 0 0 0.2192 0 -36.1303)">
</image>
<image style="overflow:visible;" width="1241" height="1536" xlink:href="Distinctive/img/modeltwist.jpg"  transform="matrix(0.22 0 0 0.22 272.2342 -37.1804)">
</image>
<rect x="158.3" y="22.2" class="st0" width="219.5" height="197.6"/>
<text transform="matrix(1 0 0 1 171.1055 40.0662)"><tspan x="0" y="0" class="st1 st2 st3">Check the</tspan><tspan x="0" y="25.2" class="st1 st4 st5">NEW COLLECTION</tspan></text>
<g>
	<text transform="matrix(1 0 0 1 171.1055 100.3052)"><tspan x="0" y="0" class="st1 st4 st5">SPRING/</tspan><tspan x="0" y="25.2" class="st1 st4 st5">SUMMER</tspan><tspan x="0" y="50.4" class="st1 st4 st5">‘20</tspan></text>
</g>
<g>
	<text transform="matrix(1 0 0 1 208.6869 202.7773)" class="st1 st6 st7">Follow us:</text>
	<path class="st1" d="M273.3,193.1c-3.6,0-6.4,2.9-6.4,6.4s2.9,6.4,6.4,6.4s6.4-2.9,6.4-6.4S276.8,193.1,273.3,193.1z M277.1,201.6
		c0,0.1-0.3,0.3-1,0.4c-0.1,0-0.1,0.1-0.1,0.2c0,0.1,0,0.1,0,0.2c0,0.1,0,0.1-0.1,0.1h0c0,0-0.1,0-0.2,0c-0.1,0-0.3,0-0.4,0
		c-0.1,0-0.2,0-0.3,0c-0.2,0-0.4,0.2-0.6,0.3c-0.3,0.2-0.6,0.4-1,0.4c0,0,0,0-0.1,0c0,0,0,0,0,0c-0.5,0-0.8-0.2-1-0.4
		c-0.2-0.1-0.4-0.3-0.6-0.3c-0.1,0-0.2,0-0.3,0c-0.2,0-0.3,0-0.4,0c-0.1,0-0.1,0-0.2,0c0,0-0.1,0-0.1-0.1c0-0.1,0-0.1,0-0.2
		c0-0.1-0.1-0.2-0.1-0.3c-0.7-0.1-0.9-0.3-1-0.4c0,0,0,0,0,0c0,0,0-0.1,0.1-0.1c1.1-0.2,1.6-1.3,1.6-1.4c0,0,0,0,0,0
		c0.1-0.1,0.1-0.3,0-0.4c-0.1-0.2-0.3-0.3-0.5-0.3c0,0-0.1,0-0.1,0c-0.3-0.1-0.4-0.3-0.3-0.3c0-0.1,0.2-0.2,0.3-0.2c0,0,0.1,0,0.1,0
		c0.1,0.1,0.3,0.1,0.4,0.1c0.2,0,0.2-0.1,0.2-0.1c0-0.1,0-0.2,0-0.2c0-0.5-0.1-1.2,0.1-1.6c0.5-1.1,1.6-1.2,1.9-1.2c0,0,0.1,0,0.1,0
		h0c0.3,0,1.4,0.1,1.9,1.2c0.2,0.4,0.1,1,0.1,1.6l0,0c0,0.1,0,0.1,0,0.2c0,0,0.1,0.1,0.2,0.1h0c0.1,0,0.2,0,0.4-0.1c0,0,0.1,0,0.1,0
		c0,0,0.1,0,0.1,0l0,0c0.1,0,0.2,0.1,0.2,0.2c0,0.1-0.1,0.2-0.3,0.3c0,0-0.1,0-0.1,0c-0.2,0.1-0.4,0.1-0.5,0.3c0,0.1,0,0.2,0,0.4
		c0,0,0,0,0,0c0,0,0.5,1.2,1.6,1.4C277.1,201.5,277.1,201.5,277.1,201.6C277.1,201.6,277.1,201.6,277.1,201.6z"/>
	<path class="st1" d="M292,196.5c-0.4,0.2-0.9,0.3-1.3,0.4c0.5-0.3,0.8-0.7,1-1.3c-0.4,0.3-0.9,0.4-1.4,0.6c-0.4-0.4-1-0.7-1.7-0.7
		c-1.3,0-2.3,1-2.3,2.3c0,0.2,0,0.4,0.1,0.5c-1.9-0.1-3.6-1-4.7-2.4c-0.2,0.3-0.3,0.7-0.3,1.2c0,0.8,0.4,1.5,1,1.9
		c-0.4,0-0.7-0.1-1-0.3c0,0,0,0,0,0c0,1.1,0.8,2,1.8,2.2c-0.2,0.1-0.4,0.1-0.6,0.1c-0.1,0-0.3,0-0.4,0c0.3,0.9,1.1,1.6,2.1,1.6
		c-0.8,0.6-1.8,1-2.8,1c-0.2,0-0.4,0-0.5,0c1,0.7,2.2,1,3.5,1c4.2,0,6.5-3.5,6.5-6.5c0-0.1,0-0.2,0-0.3
		C291.3,197.3,291.7,196.9,292,196.5z"/>
	<g>
		<g>
			<path class="st1" d="M304.6,197.9c0-0.5-0.1-0.9-0.2-1.2c-0.1-0.3-0.3-0.6-0.6-0.9c-0.3-0.3-0.6-0.5-0.9-0.6
				c-0.3-0.1-0.7-0.2-1.2-0.2c-0.5,0-0.7,0-2.1,0c-1.4,0-1.5,0-2.1,0c-0.5,0-0.9,0.1-1.2,0.2c-0.3,0.1-0.6,0.3-0.9,0.6
				c-0.3,0.3-0.5,0.6-0.6,0.9c-0.1,0.3-0.2,0.7-0.2,1.2c0,0.5,0,0.7,0,2.1c0,1.4,0,1.5,0,2.1c0,0.5,0.1,0.9,0.2,1.2
				c0.1,0.3,0.3,0.6,0.6,0.9c0.3,0.3,0.6,0.5,0.9,0.6c0.3,0.1,0.7,0.2,1.2,0.2c0.5,0,0.7,0,2.1,0s1.5,0,2.1,0c0.5,0,0.9-0.1,1.2-0.2
				c0.7-0.3,1.2-0.8,1.5-1.5c0.1-0.3,0.2-0.7,0.2-1.2c0-0.5,0-0.7,0-2.1C304.6,198.6,304.6,198.4,304.6,197.9z M303.7,202
				c0,0.5-0.1,0.8-0.2,0.9c-0.2,0.4-0.5,0.8-1,1c-0.2,0.1-0.4,0.2-0.9,0.2c-0.5,0-0.7,0-2,0c-1.4,0-1.5,0-2,0
				c-0.5,0-0.8-0.1-0.9-0.2c-0.2-0.1-0.4-0.2-0.6-0.4c-0.2-0.2-0.3-0.4-0.4-0.6c-0.1-0.2-0.2-0.4-0.2-0.9c0-0.5,0-0.7,0-2
				c0-1.4,0-1.5,0-2c0-0.5,0.1-0.8,0.2-0.9c0.1-0.2,0.2-0.4,0.4-0.6c0.2-0.2,0.4-0.3,0.6-0.4c0.2-0.1,0.4-0.2,0.9-0.2
				c0.5,0,0.7,0,2,0h0c1.4,0,1.5,0,2,0c0.5,0,0.8,0.1,0.9,0.2c0.2,0.1,0.4,0.2,0.6,0.4c0.2,0.2,0.3,0.4,0.4,0.6
				c0.1,0.2,0.2,0.4,0.2,0.9c0,0.5,0,0.7,0,2C303.7,201.3,303.7,201.4,303.7,202z"/>
			<path class="st1" d="M299.5,197.3c-1.4,0-2.6,1.2-2.6,2.6c0,1.4,1.2,2.6,2.6,2.6c1.4,0,2.6-1.2,2.6-2.6
				C302.1,198.5,301,197.3,299.5,197.3z M299.5,201.6c-0.9,0-1.7-0.8-1.7-1.7c0-0.9,0.8-1.7,1.7-1.7c0.9,0,1.7,0.8,1.7,1.7
				C301.2,200.9,300.5,201.6,299.5,201.6z"/>
			<path class="st1" d="M302.8,197.2c0,0.3-0.3,0.6-0.6,0.6c-0.3,0-0.6-0.3-0.6-0.6c0-0.3,0.3-0.6,0.6-0.6
				C302.6,196.6,302.8,196.9,302.8,197.2z"/>
		</g>
	</g>
	<path class="st1" d="M316.6,194.4h-7.3c-0.8,0-1.5,0.7-1.5,1.5v7.3c0,0.8,0.7,1.5,1.5,1.5h3.1v-3.7h-1.2v-1.8h1.2V198
		c0-1,0.8-1.8,1.8-1.8h1.8v1.8h-1.8v1.2h1.8l-0.3,1.8h-1.5v3.7h2.4c0.8,0,1.5-0.7,1.5-1.5v-7.3C318.1,195.1,317.5,194.4,316.6,194.4
		z"/>
</g>
<rect x="208.3" y="165.4" class="st8" width="123.5" height="24.3"/>
<text transform="matrix(1 0 0 1 235.1914 182.1592)" class="st1 st6 st9">SHOP NOW</text>
</svg>
